# xmcd
#
# Track frame offsets: 
#        150
#        11650
#        26812
#        44139
#        56425
#        70747
#        88797
#        102799
#        113865
#        127841
#        142483
#        159684
#        176723
#        207375
#
# Disc length: 4440 seconds
#
# Revision: 3
# Processed by: cddbd v1.5.2PL0 Copyright (c) Steve Scherf et al.
# Submitted via: ExactAudioCopy v0.99pb5
#
DISCID=cf11560e
DTITLE=The little Willies - The little Willies
DYEAR=2006
DGENRE=Country
TTITLE0=Roly Poly
TTITLE1=I'll never get out of this world alive
TTITLE2=Love me
TTITLE3=It's not you it's me
TTITLE4=Best of all possible worlds
TTITLE5=No place to fall
TTITLE6=Roll on
TTITLE7=I gotta get drunk
TTITLE8=Streets of Baltimore
TTITLE9=Easy as the rain
TTITLE10=Tennessee stud
TTITLE11=Night life
TTITLE12=Lou Reed
TTITLE13=DataTrack
EXTD=YEAR: 2006
EXTT0=
EXTT1=
EXTT2=
EXTT3=
EXTT4=
EXTT5=
EXTT6=
EXTT7=
EXTT8=
EXTT9=
EXTT10=
EXTT11=
EXTT12=
EXTT13=
PLAYORDER=
